<svg id="Layer_2" data-name="Layer 2" xmlns="http://www.w3.org/2000/svg" viewBox="0 0 1198 917.94"><defs><style>.cls-1{fill:#fff;}</style></defs><path class="cls-1" d="M640.85,651.62l44.5,39.81s4.69,7-9.37,21.08L484,909.23s-21.08,21.07-35.13-2.35c0,0-23.42-49.18-30.45-145.19,0,0-4.68-11.71,11.71-14.06l42.16-7s14.05-4.69,14.05,11.71l7,46.84Z"/><path class="cls-1" d="M938.28,166.84c-21.08-72.6-124.12-96-124.12-96-112.42-18.74-171,30.44-171,30.44-11.71-11.71-30.45-18.73-30.45-18.73-49.18-21.08-117.09-4.68-117.09-4.68-89,21.07-117.1,96-117.1,96-67.92-4.68-117.1,39.82-117.1,39.82-79.62,56.2-65.57,140.51-65.57,140.51C135,401,135,459.58,135,459.58,135,546.23,158.42,572,158.42,572c35.13,65.57,82,82,82,82a71.21,71.21,0,0,0,4.68,42.15C263.81,747.63,320,759.34,320,759.34c39.81,7,77.29-9.36,77.29-9.36,44.49-16.4,72.59-53.87,72.59-53.87,25.77-37.47,58.55-44.49,58.55-44.49,11.71-4.69,51.52-2.35,51.52-2.35V581.36C537.81,572,505,583.7,505,583.7c-42.15,11.71-86.65,60.89-86.65,60.89-25.76,30.44-46.84,42.15-46.84,42.15C331.72,707.82,313,675,313,675c-11.71-35.12,0-86.65,0-86.65,18.73-53.86,63.23-79.62,63.23-79.62,65.57-35.13,133.49,0,133.49,0,25.76,7,166.27,128.8,166.27,128.8,65.58,46.84,175.65,18.74,175.65,18.74C957,625.85,999.17,527.49,999.17,527.49c135.83-35.12,135.83-178,135.83-178C1121,166.84,938.28,166.84,938.28,166.84Zm-203.75,103s4.69-77.28-37.47-119.44c0,0,77.28-28.1,140.52,4.69,0,0,70.25,39.81,74.94,103,0,0,9.37,72.6-30.45,126.47,0,0-46.84,51.52-98.36,56.2,0,0-77.28,7-107.73-46.84C676,394,736.87,337.8,734.53,269.88ZM580,145.76s30.45,7,55,33.87c0,0,29.27,29.36,29.27,90.25,0,0-1.17,36.1-28.1,70.26,0,0-74.94-121.78-182.67-156.91C453.5,183.23,495.66,129.37,580,145.76ZM313,464.26c-58.55,49.18-67.92,110.07-67.92,110.07-60.89-58.55-25.76-138.17-25.76-138.17,14.05-32.79,49.18-51.52,49.18-51.52,28.1-11.71,58.55-7,58.55-7,44.49,4.68,82,49.18,82,49.18C348.11,431.48,313,464.26,313,464.26ZM814.16,597.75s-63.23,9.37-117.1-28.1c0,0-46.84-39.81-122.8-100.15,0,0-50.5-33.34-83.29-35.68,0,0-28.1-79.63-103-110.07,0,0-53.87-25.76-114.76-9.37,0,0,23.42-63.23,86.44-73,0,0,68.13-13.67,124.34,30.82,0,0,25.76,18.74,84.31,91.34,0,0,53.86,77.28,79.62,96,0,0,44.5,44.49,105.39,51.52,0,0,42.15,4.68,77.28-14.05,0,0,42.15,32.79,86.65,37.47C917.2,534.52,879.73,590.73,814.16,597.75ZM1050,413.83c-22.75,36.38-71.93,52.77-71.93,52.77-44.5,9.37-79.62-7-79.62-7,53.86-42.16,67.91-84.31,67.91-84.31,25.76-58.55,9.37-138.17,9.37-138.17,49.18,0,79.62,60.89,79.62,60.89C1083.48,358.88,1050,413.83,1050,413.83Z"/></svg>